subject01_walk1_grf.mot 
version=1 
nRows=18 
nColumns=19 
inDegrees=yes 
endheader	
time	ground_force_vx	ground_force_vy	ground_force_vz	ground_force_px	ground_force_py	ground_force_pz	1_ground_force_vx	1_ground_force_vy	1_ground_force_vz	1_ground_force_px	1_ground_force_py	1_ground_force_pz	ground_torque_x	ground_torque_y	ground_torque_z	1_ground_torque_x	1_ground_torque_y	1_ground_torque_z
1.249999	127.9231082933618	628.355459089412	-12.46539870049564	0.34239072589892444	-0.0075	0.11587069050843879	39.6660800909649	194.83890204322853	-3.8652399071304306	0.8338805546835284	-0.0075	-0.04650291408297058	0.0	0.0	0.0	0.0	0.0	0.0
1.26666566	119.43848595608743	545.3886611375821	-6.509024724560311	0.33045286261236106	-0.0075	0.11542519936429771	60.785658031223086	277.5638721860909	-3.31262865446373	0.8263853543496726	-0.0075	-0.04491719929166544	0.0	0.0	0.0	0.0	0.0	0.0
1.28333232	102.07578670434556	451.819860401356	2.5738916392332056	0.31823056304392444	-0.0075	0.11483359494338709	81.8347458439956	362.22658317891234	2.063503744886323	0.8201536515497089	-0.0075	-0.043947523462863985	0.0	0.0	0.0	0.0	0.0	0.0
1.29999898	78.64719151576637	355.25013860192036	7.603713025654727	0.30562322319622565	-0.0075	0.11411015237476749	98.099821332166	443.11785905399097	9.484418641042732	0.8169141616325636	-0.0075	-0.04367880267809623	0.0	0.0	0.0	0.0	0.0	0.0
1.31666564	53.416776316901526	263.30689475881695	9.652841968183623	0.29322130927348455	-0.0075	0.11311416895739804	104.95927978057843	517.3749511050439	18.966987726957296	0.8169159872975887	-0.0075	-0.04394306138958364	0.0	0.0	0.0	0.0	0.0	0.0
1.3333323	31.023409674372708	181.57911536875716	9.280272200489605	0.28093356029626176	-0.0075	0.11216079536456915	100.05049619985198	585.592647064242	29.928877846578978	0.8185635407416072	-0.0075	-0.044630279146831243	0.0	0.0	0.0	0.0	0.0	0.0
1.34999896	14.771219914396742	112.8058608331859	6.804326110733442	0.2686765876920306	-0.0075	0.11152087945143609	85.08222670692533	649.7617583991515	39.19291839782467	0.8195336952554777	-0.0075	-0.045702331316888105	0.0	0.0	0.0	0.0	0.0	0.0
1.36666562	4.798065699474651	58.25163281694522	3.839886210977295	0.25618816549387247	-0.0075	0.11142679681503118	58.5513954889018	710.851956719287	46.85861141833246	0.8171657405285601	-0.0075	-0.04708670680502508	0.0	0.0	0.0	0.0	0.0	0.0
1.38333228	0.6539464385363126	19.458419246544675	1.343014196907274	0.24427779570749197	-0.0075	0.1119176392575854	25.659612635901176	763.5113075787099	52.69731896436191	0.8101902743440401	-0.0075	-0.0486183140669936	0.0	0.0	0.0	0.0	0.0	0.0
1.39999894	-0.0	0.0	0.0	0.23504956726356094	-0.0075	0.11232645390814101	-6.684276784049263	796.6709794606027	57.29427349416151	0.799111058612993	-0.0075	-0.04997358089224562	0.0	0.0	0.0	0.0	0.0	0.0
1.4166656	-0.0	0.0	0.0	0.23168214544077878	-0.0075	0.11266466430947976	-25.590202319509057	801.1140002278286	59.60048418436256	0.7847674131508094	-0.0075	-0.0510495664464621	0.0	0.0	0.0	0.0	0.0	0.0
1.43333226	-0.0	0.0	0.0	0.2366775061714527	-0.0075	0.1132724634770519	-30.413643087098034	790.469245436729	57.80798070522408	0.7686981166218094	-0.0075	-0.05189122310134908	0.0	0.0	0.0	0.0	0.0	0.0
1.44999892	-0.0	0.0	0.0	0.2508362375815979	-0.0075	0.11463223703403931	-21.207909142944978	763.6782718644013	53.822639264882746	0.7519404498952824	-0.0075	-0.052521226210137925	0.0	0.0	0.0	0.0	0.0	0.0
1.46666558	-0.0	0.0	0.0	0.27284710056105754	-0.0075	0.1162112000975965	-6.20087258205771	724.8800782730798	51.598074019580814	0.7344907230479593	-0.0075	-0.053083455886057215	0.0	0.0	0.0	0.0	0.0	0.0
1.48333224	0.0	0.0	0.0	0.3005050706131291	-0.0075	0.11767468291744994	12.573972994310465	682.1849090640986	44.956563369463396	0.716799164571154	-0.0075	-0.05357575826597763	0.0	0.0	0.0	0.0	0.0	0.0
1.4999989	0.0	0.0	0.0	0.3318873346205132	-0.0075	0.11851782566703012	25.52229450521206	642.7075344831193	39.93097570880721	0.699002810251993	-0.0075	-0.053917049740193325	0.0	0.0	0.0	0.0	0.0	0.0
1.51666556	0.0	0.0	0.0	0.36589483114692734	-0.0075	0.11879577649042801	35.33179770972802	611.2738972850749	38.273884272707356	0.6806931269121091	-0.0075	-0.05417085282242356	0.0	0.0	0.0	0.0	0.0	0.0
1.53333222	0.0	0.0	0.0	0.4018323963857248	-0.0075	0.11840013407225257	40.753393891900814	589.7119850031644	39.46407715451453	0.6623759945185589	-0.0075	-0.05433822279614887	0.0	0.0	0.0	0.0	0.0	0.0
